<?xml version="1.0" encoding="UTF-8"?>
<svg width="42px" height="42px" viewBox="0 0 42 42" version="1.1" xmlns="http://www.w3.org/2000/svg" xmlns:xlink="http://www.w3.org/1999/xlink">
    <!-- Generator: Sketch 47 (45396) - http://www.bohemiancoding.com/sketch -->
    <title>Group</title>
    <desc>Created with Sketch.</desc>
    <defs></defs>
    <g id="Page-1" stroke="none" stroke-width="1" fill="none" fill-rule="evenodd">
        <g id="Artboard" transform="translate(-1.000000, -2.000000)" fill-rule="nonzero">
            <g id="Group" transform="translate(1.000000, 2.000000)">
                <path d="M6.85780725,6.85780725 C-0.952620437,14.6682349 -0.952586075,27.3316154 6.85781228,35.1421249 C14.6681633,42.952587 27.3317693,42.952587 35.1422365,35.1421198 C42.9525878,27.3317685 42.9525878,14.6681586 35.1422415,6.85781228 C27.3316977,-0.952620437 14.6682006,-0.952586075 6.85780725,6.85780725 Z" id="Shape" stroke="#FFFFFF" stroke-width="2"></path>
                <path d="M29.1818182,19.1818182 L22.8181818,19.1818182 L22.8181818,12.8181818 C22.8181818,11.8140404 22.0041414,11 21,11 C19.9958586,11 19.1818182,11.8140404 19.1818182,12.8181818 L19.1818182,19.1818182 L12.8181818,19.1818182 C11.8140404,19.1818182 11,19.9958586 11,21 C11,22.0041414 11.8140404,22.8181818 12.8181818,22.8181818 L19.1818182,22.8181818 L19.1818182,29.1818182 C19.1818182,30.1859596 19.9958586,31 21,31 C22.0041414,31 22.8181818,30.1859596 22.8181818,29.1818182 L22.8181818,22.8181818 L29.1818182,22.8181818 C30.1859596,22.8181818 31,22.0041414 31,21 C31,19.9958586 30.1859596,19.1818182 29.1818182,19.1818182 Z" id="Shape" fill="#FFFFFF"></path>
            </g>
        </g>
    </g>
</svg>