<?xml version="1.0" encoding="UTF-8"?>
<svg width="45px" height="45px" viewBox="0 0 45 45" version="1.1" xmlns="http://www.w3.org/2000/svg" xmlns:xlink="http://www.w3.org/1999/xlink">
    <!-- Generator: Sketch 47 (45396) - http://www.bohemiancoding.com/sketch -->
    <title>icon-comentario</title>
    <desc>Created with Sketch.</desc>
    <defs></defs>
    <g id="Page-1" stroke="none" stroke-width="1" fill="none" fill-rule="evenodd">
        <g id="MOB_TD-NEWS_INTERNA" transform="translate(-163.000000, -414.000000)">
            <g id="icon-comentario" transform="translate(163.000000, 414.000000)">
                <rect id="Rectangle-6" stroke-opacity="0.01" stroke="#FFFFFF" x="0.5" y="0.5" width="44" height="44"></rect>
                <g id="Group" transform="translate(11.000000, 11.000000)" fill-rule="nonzero" fill="#FFFFFF">
                    <path d="M11.9,24.05 C10.25,24.05 8.7,23.75 7.2,23.1 C6.8,22.95 6.65,22.5 6.8,22.1 C6.95,21.7 7.4,21.55 7.8,21.7 C9.1,22.25 10.45,22.55 11.9,22.55 C17.65,22.55 22.3,17.9 22.3,12.15 C22.3,6.4 17.65,1.75 11.9,1.75 C6.95,1.75 2.65,5.25 1.7,10.1 C1.65,10.35 1.6,10.65 1.6,10.9 C1.55,11.3 1.5,11.7 1.5,12.15 C1.5,14.85 2.55,17.45 4.45,19.4 C4.75,19.7 4.75,20.15 4.45,20.45 C4.15,20.75 3.7,20.75 3.4,20.45 C1.25,18.2 0.05,15.3 0.05,12.15 C0.05,11.65 0.1,11.15 0.15,10.7 C0.2,10.4 0.25,10.1 0.3,9.75 C1.4,4.2 6.35,0.2 12,0.2 C18.55,0.2 23.9,5.55 23.9,12.1 C23.8,18.7 18.45,24.05 11.9,24.05 Z" id="Shape"></path>
                    <path d="M4.45,23.85 C3.15,23.85 1.85,23.5 0.7,22.85 C0.35,22.65 0.2,22.2 0.45,21.8 C0.65,21.45 1.1,21.3 1.5,21.55 C2.4,22.1 3.45,22.35 4.5,22.35 C5.45,22.35 6.35,22.15 7.2,21.7 C7.55,21.5 8,21.65 8.2,22.05 C8.4,22.4 8.25,22.85 7.85,23.05 C6.75,23.6 5.65,23.85 4.45,23.85 Z" id="Shape"></path>
                    <path d="M1.05,22.95 C0.75,22.95 0.5,22.8 0.35,22.5 C0.2,22.1 0.35,21.7 0.75,21.5 C1.75,21.05 2.6,20.35 3.25,19.45 C3.5,19.1 3.95,19 4.3,19.25 C4.65,19.5 4.75,19.95 4.5,20.3 C3.7,21.45 2.65,22.35 1.4,22.9 C1.3,22.95 1.2,22.95 1.05,22.95 Z" id="Shape"></path>
                </g>
            </g>
        </g>
    </g>
</svg>