<?xml version="1.0" encoding="UTF-8"?>
<svg width="45px" height="45px" viewBox="0 0 45 45" version="1.1" xmlns="http://www.w3.org/2000/svg" xmlns:xlink="http://www.w3.org/1999/xlink">
    <!-- Generator: Sketch 47 (45396) - http://www.bohemiancoding.com/sketch -->
    <title>icon-bookmark</title>
    <desc>Created with Sketch.</desc>
    <defs></defs>
    <g id="Page-1" stroke="none" stroke-width="1" fill="none" fill-rule="evenodd">
        <g id="MOB_TD-NEWS_INTERNA" transform="translate(-25.000000, -414.000000)">
            <g id="icon-bookmark" transform="translate(25.000000, 414.000000)">
                <rect id="Rectangle-6" stroke-opacity="0.01" stroke="#FFFFFF" x="0.5" y="0.5" width="44" height="44"></rect>
                <g id="Group-7" transform="translate(14.000000, 11.000000)" fill-rule="nonzero" fill="#FFFFFF">
                    <path d="M0.35440613,1.51340996 C0.35440613,8.63984674 0.35440613,15.7662835 0.35440613,22.8927203 C0.35440613,24.3773946 2.72988506,24.3773946 2.72988506,22.8927203 C2.72988506,22.5957854 2.72988506,22.2988506 2.72988506,22.2988506 C2.72988506,20.8141762 0.35440613,20.8141762 0.35440613,22.2988506 C0.35440613,22.5957854 0.35440613,22.8927203 0.35440613,22.8927203 C0.35440613,24.3773946 2.72988506,24.3773946 2.72988506,22.8927203 C2.72988506,15.7662835 2.72988506,8.63984674 2.72988506,1.51340996 C2.72988506,0.0287356322 0.35440613,0.0287356322 0.35440613,1.51340996 L0.35440613,1.51340996 Z" id="Shape"></path>
                    <path d="M2.43295019,23.7835249 C4.80842912,21.1111111 7.18390805,18.1417625 9.55938697,15.4693487 C10.4501916,14.2816092 8.96551724,12.7969349 8.07471264,13.9846743 C5.69923372,16.6570881 3.02681992,19.3295019 0.651340996,22.2988506 C-0.239463602,23.1896552 1.54214559,24.9712644 2.43295019,23.7835249 L2.43295019,23.7835249 Z" id="Shape"></path>
                    <path d="M8.07471264,15.4693487 C10.4501916,18.4386973 13.1226054,21.1111111 15.4980843,24.0804598 C16.3888889,25.2681992 17.8735632,23.48659 16.9827586,22.5957854 C14.6072797,19.6264368 11.9348659,16.6570881 9.55938697,13.9846743 C8.66858238,12.7969349 7.18390805,14.2816092 8.07471264,15.4693487 L8.07471264,15.4693487 Z" id="Shape"></path>
                    <path d="M17.5766284,23.48659 C17.5766284,16.0632184 17.5766284,8.93678161 17.5766284,1.51340996 C17.5766284,0.0287356322 15.2011494,0.0287356322 15.2011494,1.51340996 C15.2011494,8.93678161 15.2011494,16.0632184 15.2011494,23.48659 C15.2011494,24.6743295 17.5766284,24.9712644 17.5766284,23.48659 L17.5766284,23.48659 Z" id="Shape"></path>
                    <path d="M1.54214559,2.40421456 C6.29310345,2.40421456 11.3409962,2.40421456 16.091954,2.40421456 C17.5766284,2.40421456 17.5766284,0.0287356322 16.091954,0.0287356322 C11.3409962,0.0287356322 6.29310345,0.0287356322 1.54214559,0.0287356322 C0.0574712644,0.325670498 0.0574712644,2.40421456 1.54214559,2.40421456 L1.54214559,2.40421456 Z" id="Shape"></path>
                </g>
            </g>
        </g>
    </g>
</svg>