<?xml version="1.0" encoding="UTF-8"?>
<svg width="45px" height="45px" viewBox="0 0 45 45" version="1.1" xmlns="http://www.w3.org/2000/svg" xmlns:xlink="http://www.w3.org/1999/xlink">
    <!-- Generator: Sketch 47 (45396) - http://www.bohemiancoding.com/sketch -->
    <title>icon-like</title>
    <desc>Created with Sketch.</desc>
    <defs></defs>
    <g id="Page-1" stroke="none" stroke-width="1" fill="none" fill-rule="evenodd">
        <g id="MOB_TD-NEWS_INTERNA" transform="translate(-78.000000, -414.000000)" stroke="#FFFFFF">
            <g id="icon-like" transform="translate(78.000000, 414.000000)">
                <rect id="Rectangle-6" stroke-opacity="0.01" x="0.5" y="0.5" width="44" height="44"></rect>
                <g id="Group-11" transform="translate(13.000000, 11.000000)" stroke-width="2" stroke-linecap="round" stroke-linejoin="round">
                    <path d="M4.66666667,11.768457 C4.66666667,11.768457 7.486,10.0633077 8.012,8.0829095 C8.53866667,6.10251131 8.376,3.68171493 8.376,3.1869638 C8.376,1.44279186 9.78866667,1.17869231 10.834,1.52641176 C12.6266667,2.12150679 13.1753333,3.88937104 13.2046667,5.0691086 C13.2646667,7.51150679 12.6826667,8.46825792 12.6826667,8.46825792 L17.4073333,8.46825792 C18.7226667,8.46825792 19.7966667,8.94976923 19.9333333,10.5594525 C20.056,12.0018959 18.978,12.8415792 18.978,12.8415792 C18.978,12.8415792 20.3833333,13.0833801 20.3833333,15.0345113 C20.3833333,16.5124932 19.0693333,17.1194344 19.0693333,17.1194344 C19.0693333,17.1194344 19.478,17.974448 19.1846667,19.06081 C18.8913333,20.1478688 17.7433333,20.3032624 17.7433333,20.3032624 C17.7433333,20.3032624 18.046,23.1094072 15.6746667,23.1094072 L8.736,23.1094072 C5.79266667,23.1094072 4.69733333,20.7325113 4.69733333,20.7325113 L4.66666667,11.768457 Z" id="Page-1"></path>
                    <rect id="Rectangle-13" x="0" y="10.4524887" width="4.66666667" height="12.5429864"></rect>
                </g>
            </g>
        </g>
    </g>
</svg>